# OBJ generated by ONSHAPE BY PTC INC, 1.207 Units = meters
mtllib telerobotics.mtl
g Part 1
v -6.4 1.75 -2.25 
v -6.4 1.75 -3.25 
v -6 1.75 -3.25 
v -6 1.75 -2.25 
v -6.4 -1.75 -3.25 
v -6 -1.75 -3.25 
v -6.4 -1.75 -2.25 
v -6 -1.75 -2.25 
v -6.4 4.4 0 
v -6.4 4.4 -5.5 
v -6.4 -4.4 -5.5 
v -6.4 -4.4 0 
v 0 -4.4 -5.5 
v 0 -4.4 0 
v 6.4 -4.4 0 
v 6.4 -4.4 -5.5 
v 6.4 4.4 -5.5 
v 6.4 4.4 0 
v 3.9443e-31 4.4 -5.5 
v 3.9443e-31 4.4 0 
v -6 4 0 
v 0 4 0 
v 6 4 0 
v -6 -4 0 
v 6 -4 0 
v -3.9443e-31 -4 0 
v -6 -4 -5 
v -6 4 -5 
v 6 -4 -5 
v -3.9443e-31 -4 -5 
v 6 4 -5 
v 0 4 -5 
vn 2.01859e-16 -1 0 
vn 0 0 1 
vn -2.01859e-16 1 0 
vn 0 0 -1 
vn -1 -2.01859e-16 0 
vn 0 -1 0 
vn 1 2.01859e-16 0 
vn 0 1 0 
vn 0 0 -1 
vn 0 0 1 
vn 1 2.22045e-16 0 
vn -1.4803e-16 1 0 
vn -1 -2.22045e-16 0 
vn 1.4803e-16 -1 0 
vn 0 0 1 
usemtl 0.615686_0.811765_0.929412_0.000000_0.000000
o mesh0
f 1//1 2//1 3//1 
f 3//1 4//1 1//1 
o mesh1
f 5//2 6//2 3//2 
f 3//2 2//2 5//2 
o mesh2
f 7//3 8//3 6//3 
f 6//3 5//3 7//3 
o mesh3
f 7//4 1//4 4//4 
f 4//4 8//4 7//4 
o mesh4
f 9//5 10//5 2//5 
f 10//5 11//5 5//5 
f 5//5 2//5 10//5 
f 11//5 12//5 7//5 
f 12//5 9//5 1//5 
f 7//5 5//5 11//5 
f 2//5 1//5 9//5 
f 1//5 7//5 12//5 
o mesh5
f 11//6 13//6 14//6 
f 15//6 14//6 13//6 
f 13//6 16//6 15//6 
f 14//6 12//6 11//6 
o mesh6
f 17//7 18//7 15//7 
f 15//7 16//7 17//7 
o mesh7
f 17//8 19//8 20//8 
f 9//8 20//8 19//8 
f 19//8 10//8 9//8 
f 20//8 18//8 17//8 
o mesh8
f 10//9 19//9 13//9 
f 16//9 13//9 19//9 
f 19//9 17//9 16//9 
f 13//9 11//9 10//9 
o mesh9
f 20//10 9//10 21//10 
f 20//10 22//10 23//10 
f 15//10 18//10 23//10 
f 23//10 18//10 20//10 
f 21//10 22//10 20//10 
f 9//10 12//10 24//10 
f 14//10 15//10 25//10 
f 14//10 26//10 24//10 
f 24//10 21//10 9//10 
f 24//10 12//10 14//10 
f 25//10 26//10 14//10 
f 23//10 25//10 15//10 
o mesh10
f 21//11 24//11 8//11 
f 27//11 6//11 8//11 
f 27//11 28//11 3//11 
f 28//11 21//11 4//11 
f 8//11 24//11 27//11 
f 4//11 3//11 28//11 
f 3//11 6//11 27//11 
f 8//11 4//11 21//11 
o mesh11
f 29//12 30//12 26//12 
f 24//12 26//12 30//12 
f 30//12 27//12 24//12 
f 26//12 25//12 29//12 
o mesh12
f 29//13 25//13 23//13 
f 23//13 31//13 29//13 
o mesh13
f 28//14 32//14 22//14 
f 23//14 22//14 32//14 
f 32//14 31//14 23//14 
f 22//14 21//14 28//14 
o mesh14
f 31//15 32//15 30//15 
f 27//15 30//15 32//15 
f 32//15 28//15 27//15 
f 30//15 29//15 31//15 
